<?xml version="1.0" standalone="no"?><!DOCTYPE svg PUBLIC "-//W3C//DTD SVG 1.1//EN" "http://www.w3.org/Graphics/SVG/1.1/DTD/svg11.dtd"><svg t="1773597185454" class="icon" viewBox="0 0 1024 1024" version="1.1" xmlns="http://www.w3.org/2000/svg" p-id="10106" xmlns:xlink="http://www.w3.org/1999/xlink" width="200" height="200"><path d="M514.819 511.244m-450 0a450 450 0 1 0 900 0 450 450 0 1 0-900 0Z" fill="#EAE7BF" p-id="10107"></path><path d="M425.952 779.336l81.326 16.326s31.15 93.713 23.786 106.215c-15.767 26.768-1.777-2.539-15.494-19.116-8.581-10.369-89.618-103.425-89.618-103.425zM622.416 739.507l71.091 0.69s-24.114 129.443-32.909 132.874c-7.93 3.093 4.566-13.08-6.617-25.025-9.198-9.825-31.565-108.539-31.565-108.539z" fill="#DC708F" p-id="10108"></path><path d="M263.234 389.63l-3.869-0.128c-5.69-0.188-29.92-7.996-34.167-12.03l-0.476-0.452-0.156-0.638c-2.904-11.867 12.865-37.578 26.321-47.394 3.511-2.56 5.879-3.702 7.681-3.702 1.235 0 2.277 0.522 2.934 1.472 1.659 2.397 0.239 6.513-2.214 13.03-0.617 1.639-1.218 3.234-1.655 4.61-4.256 13.423-2.807 29.446 3.783 41.815l1.818 3.417z m-34.455-15.004c3.672 2.581 18.671 7.937 26.794 9.773-5.584-12.841-6.443-27.99-2.206-41.353 0.458-1.442 1.086-3.116 1.733-4.834 0.862-2.291 2.346-6.232 2.618-8.196-0.742 0.315-2.041 1.018-4.193 2.588-12.478 9.103-25.858 29.396-24.746 42.022z" fill="#BAB3C9" p-id="10109"></path><path d="M229.063 369.844c3.672 2.581 17.481 8.986 25.603 10.822-4.333-11.667-5.537-24.258-1.3-37.62 0.458-1.442 1.086-3.116 1.733-4.834 0.862-2.291 2.346-6.232 2.618-8.196-0.742 0.315-2.041 1.018-4.193 2.588-12.477 9.103-24.524 28.063-24.461 37.24z" fill="#FFFFFF" p-id="10110"></path><path d="M901.424 396.656c-10.638-71.479-42.699-130.203-92.718-169.825-46.794-37.069-107.621-56.661-175.902-56.661-50.006 0-101.223 10.327-152.229 30.694-26.212 10.467-48.705 20.342-67.429 31.198-11.103-8.206-48.051-35.559-50.524-37.997-10.411-10.266-52.363 4.355-50.741 9.077 6.036 17.564 29.609 29.918 25.987 64.529-0.519 4.963 0.595 12.625 3.577 17.567-18.503 16.882-33.038 33.522-32.445 38.466 0.191 1.591-0.496 4.032-1.224 6.615-0.275 0.98-0.557 1.982-0.812 3.002-7.867 1.691-21.825 13.529-30.21 28.466-4.455 7.933-5.382 18.339-2.112 23.69 0.09 0.147 0.186 0.292 0.287 0.433-35.204-6.134-89.372-32.345-112.495-83.438-4.786-10.575-11.971-11.024-18.813-11.024-15.143 0-34.508 16.414-53.127 45.034C53.338 393.598 29.155 481.72 54.83 539.637c11.336 25.571 84.562 54.567 143.4 77.865 24.8 9.82 46.217 18.303 55.963 23.972 11.147 6.486 16.448 19.964 23.16 37.028 9.701 24.667 21.776 55.366 58.039 79.69 49.363 33.112 114.996 51.348 184.81 51.348 2.34 0 4.67-0.02 6.995-0.061 3.56 21.483 6.603 48.365 8.842 68.148 1.453 12.836 2.502 22.112 3.195 25.639 1.801 9.169 12.611 19.925 17.075 19.925 1.031 0 1.945-0.452 2.506-1.243 1.084-1.53 0.365-3.577 0.129-4.25-6.263-17.886 9.128-45.66 24.013-72.518 9.296-16.776 18.094-32.654 21.286-45.62 20.543-5.773 49.045-15.312 63.701-23.784 19.04-11.005 31.454-18.59 46.11-28.224-13.146 39.417-28.349 106.43-29.269 116.047-0.833 8.699 2.526 18.771 5.111 21.616 0.741 0.815 1.56 1.228 2.437 1.228h0.002c0.78 0 1.495-0.332 2.015-0.933 0.826-0.955 1.239-2.504 0.581-6.953-1.112-7.517 39.382-65.932 75.11-117.472 43.003-62.036 87.467-126.18 97.381-152.195 30.613-58.858 48.101-117.496 34.002-212.234z m-38.029 210.281l-0.109 0.24c-9.626 25.423-56.002 92.325-96.922 151.354-44.329 63.948-72.713 105.362-75.647 118.156-1.066-3.512-1.903-8.186-1.475-12.665 0.961-10.028 17.7-83.385 31.185-121.226l2.264-6.352-5.614 3.739c-17.128 11.411-30.088 19.416-51.368 31.716-14.602 8.439-43.571 18.043-63.941 23.703l-1.298 0.361-0.288 1.315c-2.758 12.565-11.686 28.674-21.138 45.73-14.934 26.95-30.361 54.79-24.846 74.491-3.518-2.644-9.396-9.112-10.57-15.095-0.658-3.35-1.753-13.028-3.14-25.281-2.312-20.425-5.478-48.396-9.196-70.296l-0.323-1.908-1.934 0.044c-2.936 0.068-5.873 0.101-8.83 0.101-68.937 0-133.684-17.965-182.317-50.587-35.104-23.548-46.894-53.524-56.368-77.614-6.751-17.165-12.581-31.989-25.073-39.257-10.037-5.839-31.599-14.376-56.566-24.264-55.016-21.784-130.362-51.621-140.957-75.518-14.91-33.636-10.869-73.774-4.854-101.522 7.36-33.948 22.004-69.441 40.179-97.378 17.515-26.925 35.974-42.999 49.375-42.999 5.27 0 9.779 2.536 13.405 7.538 33.082 64.453 99.727 88.972 134.271 88.412 0 0 1.643 0 4.44-0.559 2.797-0.559 1.399-4.021 1.399-4.021-15.384 2.797-17.023-3.055-17.761-4.266-2.112-3.455-2.643-12.059 1.282-19.048 9.045-16.113 23.536-26.39 28.117-26.39l1.832 0.015 0.376-1.794c0.298-1.42 0.707-2.872 1.102-4.278 0.852-3.027 1.656-5.885 1.364-8.257 0.501-6.126 40.287-47.82 73.987-67.794l0.327-0.236c22.098-19.198 53.748-33.962 94.473-50.225 50.476-20.156 101.133-30.375 150.569-30.375 67.263 0 127.126 19.258 173.123 55.693 49.112 38.904 80.603 96.643 91.071 166.976 13.929 93.608-3.361 151.499-33.606 209.621z" fill="#DC708F" p-id="10111"></path><path d="M531.158 804.973l0.323 1.908c3.718 21.9 6.884 49.871 9.196 70.296 1.388 12.252 2.482 21.931 3.14 25.281 1.173 5.983 7.052 12.451 10.57 15.095-5.515-19.702 9.912-47.541 24.846-74.491 9.451-17.055 18.38-33.165 21.137-45.73l0.288-1.315 1.298-0.361c20.37-5.66 49.34-15.264 63.941-23.703 21.279-12.301 34.24-20.305 51.368-31.716l5.614-3.739-2.264 6.352c-13.485 37.841-30.224 111.198-31.185 121.226-0.428 4.48 0.409 9.154 1.475 12.665 2.935-12.794 31.318-54.208 75.647-118.156 40.92-59.029 87.297-125.931 96.922-151.354l0.109-0.24c30.245-58.122 47.535-116.012 33.602-209.623-10.467-70.333-41.958-128.071-91.07-166.976-45.996-36.435-105.86-55.693-173.123-55.693-49.436 0-100.093 10.219-150.569 30.375-40.725 16.262-72.375 31.027-94.473 50.225l-0.327 0.236c-33.699 19.974-73.485 61.668-73.987 67.794 0.293 2.372-0.511 5.23-1.364 8.257-0.396 1.405-0.804 2.857-1.102 4.278l-0.376 1.794-1.832-0.015c-4.581 0-19.072 10.277-28.117 26.39-3.925 6.989-3.813 15.559-1.701 19.013 0.739 1.211 3.831 3.712 14.405 4.65l-1.364 3.636-4.37 0.35c-34.963-1.678-97.518-23.715-130.6-88.167-3.626-5.002-8.136-7.538-13.405-7.538-13.401 0-31.859 16.074-49.375 42.999-18.175 27.937-32.82 63.43-40.179 97.378-6.015 27.749-10.055 67.887 4.854 101.522 10.595 23.897 85.941 53.734 140.957 75.518 24.967 9.888 46.53 18.426 56.566 24.264 12.492 7.268 18.322 22.092 25.073 39.257 9.474 24.09 21.264 54.066 56.368 77.614 48.633 32.623 113.38 50.587 182.317 50.587 2.958 0 5.895-0.033 8.83-0.101l1.937-0.042z" fill="#F1BFB6" p-id="10112"></path><path d="M556.231 919.923l-0.041 1.237 0.056-1.239z" fill="#B841D5" p-id="10113"></path><path d="M530.898 805.128s7.204 51.022 9.513 71.439c1.388 12.265 2.378 21.677 3.056 25.306 2.178 11.64 10.72 16.003 10.647 15.649-4.275-20.814 7.961-43.494 23.218-71.023 9.487-17.12 20.659-37.096 22.967-50.664 7.475-0.994 42.888-11.284 66.259-24.157 24.582-13.54 54.878-34.351 55.899-34.867-11.706 33.608-26.598 89.324-32.222 121.424-1.301 7.424-1.86 10.501 0.517 18.333 4.336-14.265 34.382-58.448 75.54-117.826 40.957-59.088 87.362-126.059 97.032-151.594 28.79-45.564 74.695-183.736-4.329-316.89 70.764 161.1-10.761 314.549-61.003 360.467-55.125 50.382-126.212 84.714-211.283 102.043-24.617 5.015-49.061 7.162-72.653 6.384-79.361-2.617-151.06-38.691-201.886-101.578-47.99-59.378-73.992-139.59-71.339-220.065 0.569-17.269-0.286-38.025 3.301-55.6-40.839-17.578-66.081-40.068-86.366-78.844-3.612-5.025-8.232-7.743-13.635-7.921-13.388-0.441-31.151 14.259-48.731 40.332-37.271 55.278-63.066 145.195-37.46 202.96 10.76 24.273 84.23 52.156 139.408 74.008 24.926 9.87 49.254 20.035 59.224 25.834 12.193 7.093 18.491 22.125 24.875 38.795 10.067 26.284 22.425 55.774 58.693 79.176 45.973 29.664 103.072 46.618 168.068 48.89 7.485 0.259 22.69-0.011 22.69-0.011z" fill="#EDACA7" p-id="10114"></path><path d="M59.671 539.859c14.009 24.735 28.287 1.072 56.664-0.612 59.586-3.538 85.914 61.285 116.259 35.256 20.423-17.519-54.358-66.55-50.286-180.271 1.694-47.305-19.926-81.808-23.042-88.591s-12.538-17.193-32.446-4.289c-52.811 34.229-102.704 175.73-67.149 238.507z" fill="#EE869C" p-id="10115"></path><path d="M171.196 505.498c1.694-47.305-28.58-85.222-31.697-92.005s-3.719-23.606-23.628-10.702c-25.318 16.41-50.27 68.008-65.107 113.016 1.959 8.834 3.781 17.12 7.806 24.227 14.009 24.735 28.458 4.094 56.501-0.559 33.258-5.519 72.173 31.052 99.985 40.238-3.03-15.798-44.554-54.817-43.86-74.215z" fill="#DC708F" p-id="10116"></path><path d="M450.505 417.132c0.735 34.134-16.632 49.686-35.108 49.077-18.476-0.609-35.994-18.096-35.08-45.81 0.914-27.714 19.914-55.16 38.389-54.551 18.476 0.61 31.202 23.562 31.799 51.284z" fill="#E7859C" p-id="10117"></path><path d="M172.195 450.128c1.716 26.834 9.099 50.007-4.993 51.104-14.923 1.162-24.029-18.365-25.744-45.199-1.716-26.834-1.394-61.794 4.078-62.6 16.751-2.467 24.943 29.861 26.659 56.695zM100.762 438.863c-2.615 27.908-11.595 45.504-15.455 46.187-11.702 2.073-12.002-16.345-9.387-44.253s24.791-59.767 33.629-52.205c5.576 4.77-6.172 22.364-8.787 50.271z" fill="#C54B7C" p-id="10118"></path><path d="M437.328 412.356c-0.736 19.201-17.665 31.047-37.091 27.719-11.813-2.024-17.492-14.786-12.208-30.998 5.207-15.977 14.789-34.765 26.767-34.37 11.978 0.395 23.382 15.488 22.532 37.649z" fill="#FFFFFF" p-id="10119"></path><path d="M427.955 417.629c-2.037 7.495-6.458 14.051-14.968 8.809-3.681-2.267-3.231-8.582-0.661-14.243 2.414-5.316 5.935-9.425 10.132-8.389 4.198 1.035 7.028 8.189 5.497 13.823z" fill="" p-id="10120"></path><path d="M286.611 656.771s48.391 6.623 77.527-34.105c11.672-16.317-25.607 80.355-45.333 70.797-19.727-9.558-32.194-36.692-32.194-36.692z" fill="#DC3751" p-id="10121"></path><path d="M310.806 327.871c4.115-11.958 7.895-20.614 19.991-23.218 13.742-2.958 17.151 16.646 14.466 31.486-3.792 20.961-26.065 56.291-57.881 55.697 8.671-2.517 3.252-7.412 12.147-13.482 11.175-7.626 28.083-22.292 26.782-31.677-2.506-18.067-15.505-18.806-15.505-18.806z" fill="#E7859C" p-id="10122"></path><path d="M877.219 322.223c24.888-2.454 42.252-11.804 45.788-25.022 4.281-15.999-0.925-25.251-3.011-27.801-4.126-5.041-19.38-8.528-24.81 3.213-2.449 5.294-2.823 16.652 14.194 20.934 9.096 2.289 31.118-3.315 42.113-17.01 3.596-4.48 6.408 0.005 2.975 3.819-14.673 16.302-49.754 26.164-61.541 7.48-5.536-8.775-3.51-19.213 2.758-24.096 6.269-4.883 20.689-6.76 28.23 2.791 6.986 8.848 7.442 21.952 1.397 36.017-4.8 11.167-13.354 19.406-45.224 26.727-0.566-1.671-2.869-7.052-2.869-7.052z" fill="#DC708F" p-id="10123"></path><path d="M361.834 613.429c-12.137 0-25.512-7.36-32.527-17.899-7.237-10.874-15.025-27.027-10.973-55.652 4.734-33.44 23.241-49.262 36.749-58.254 8.023-5.34 14.392-5.94 16.72-2.028 1.643 2.758 0.905 7.056-2.193 12.773-9.508 17.543-12.697 42.759-12.511 60.506 0.166 15.843 6.87 23.216 18.705 34.887 2.854 2.815 4.415 6.838 4.283 11.037-0.127 4.021-1.795 7.624-4.697 10.146-3.375 2.933-8.063 4.484-13.556 4.484z m4.854-131.973c-0.984 0-3.845 0.379-9.125 3.894-12.791 8.515-30.315 23.496-34.797 55.156-3.842 27.13 3.469 42.333 10.267 52.547 6.232 9.361 18.076 15.902 28.801 15.902 4.399 0 8.071-1.171 10.621-3.387 1.949-1.694 3.071-4.148 3.159-6.907 0.092-2.915-1.012-5.797-2.952-7.712-12.348-12.174-19.857-20.81-20.038-38.025-0.093-8.885 0.574-39.663 13.051-62.687 2.729-5.035 2.719-7.618 2.284-8.351-0.171-0.286-0.599-0.43-1.271-0.43z" fill="#BAB3C9" p-id="10124"></path><path d="M366.688 481.456c-0.984 0-3.845 0.379-9.125 3.894-12.791 8.515-30.315 23.496-34.797 55.156-3.842 27.13 3.469 42.333 10.267 52.547 6.232 9.361 18.076 15.902 28.801 15.902 4.399 0 8.071-1.171 10.621-3.387 1.949-1.694 3.071-4.148 3.159-6.907 0.092-2.915-1.012-5.797-2.952-7.712-12.348-12.174-19.857-20.81-20.038-38.025-0.093-8.885 0.574-39.663 13.051-62.687 2.729-5.035 2.719-7.618 2.284-8.351-0.171-0.286-0.599-0.43-1.271-0.43z" fill="#FFFFFF" p-id="10125"></path><path d="M655.645 375.078c-1.943-11.549-30.571-56.232-42.592-56.601a63.95 63.95 0 0 0-2.03-0.029c-10.747 0-30.331 2.055-40.118 7.653-21.553 10.622-57.211 40.994-58.23 43.764-4.301 11.688-6.019 17.529-4.833 21.242 0.376 1.177 1.389 1.937 2.581 1.937l0.004-0.001c12.175 6.564 114.454 8.257 127.88 6.952 2.625-0.255 5.594 3.053 6.84 3.053h0.002c3.359 0 7.626-3.568 9.134-7.637 2.191-5.914 2.053-16.224 1.362-20.333z" fill="#DC708F" p-id="10126"></path><path d="M637.917 384.577c2.736 0 4.831 0.848 6.234 2.52 1.868 2.227 2.347 5.738 1.462 10.737-0.05 0.288-0.07 0.51-0.074 0.676 1.27-0.356 3.643-2.21 4.55-4.654 1.857-5.022 1.731-14.548 1.143-18.034-0.929-5.524-8.028-18.562-16.883-31.003-10.603-14.899-18.541-21.78-21.43-21.868-9.077-0.263-30.204 1.551-39.913 7.1-21.918 10.807-53.392 38.647-56.255 41.697-1.766 4.802-3.955 10.803-4.61 14.745 1.657-1.88 3.809-4.605 5.557-6.819 3.539-4.482 7.198-9.117 9.836-11.294 9.353-7.717 34.572-15.594 49.641-20.299 3.02-0.943 5.636-1.759 7.633-2.421a7.936 7.936 0 0 1 2.498-0.397c14.352 0 33.134 38.023 34.867 42.421 0.092 0.017 0.243 0.036 0.465 0.036 1.394 0 3.728-0.67 5.987-1.317 2.983-0.857 6.364-1.826 9.292-1.826z" fill="#EDACA7" p-id="10127"></path><path d="M328.221 357.697c-10.608 29.366-35.249 31.608-43.881 30.083-10.289-1.818-7.822-16.904-1.55-31.581 5.053-11.825 16.72-29.217 26.174-28.906 10.443 0.345 24.774 15.133 19.257 30.404z" fill="#FFFFFF" p-id="10128"></path><path d="M318.265 360.047c-0.461 5.069-6.07 11.179-11.157 11.012-5.087-0.168-7.298-4.375-5.882-9.703 2.074-7.803 6.486-12.603 11.573-12.436 5.088 0.167 6.046 4.747 5.466 11.127z" fill="" p-id="10129"></path><path d="M505.896 210.577c19.407-11.764 115.052-28.456 132.316-25.406 12.235 2.161 21.703 17.446 11.047 16.076-17.292-2.224-107.899 12.154-128.849 20.559-9.611 3.855-22.416-6.439-14.514-11.229z" fill="#C54B7C" p-id="10130"></path><path d="M571.051 203.216c-33.948 1.361-64.728-30.686-63.421-70.311 1.307-39.626 31.439-73.385 66.054-72.244s61.024 30.15 59.718 69.776c-1.307 39.625-27.736 73.92-62.351 72.779z" fill="#FFF489" p-id="10131"></path><path d="M571.051 203.216c-33.948 1.361-64.728-30.686-63.421-70.311 1.307-39.626 31.439-73.385 66.054-72.244s61.024 30.15 59.718 69.776c-1.307 39.625-27.736 73.92-62.351 72.779z" fill="#FFF489" p-id="10132"></path><path d="M624.293 91.403c0 0.916-0.001 1.833-0.031 2.761-1.307 39.626-29.016 75.119-63.631 73.978-21.878 0.877-41.893-12.629-53.021-32.942-0.118 38.603 30.152 69.351 63.442 68.016 34.615 1.141 61.044-33.154 62.351-72.78 0.487-14.79-2.89-28.098-9.11-39.033z" fill="#FFD452" p-id="10133"></path><path d="M521.101141 131.719425a53.513 61.923 1.891 1 0 106.967715 3.531664 53.513 61.923 1.891 1 0-106.967715-3.531664Z" fill="#F0D850" p-id="10134"></path><path d="M521.439 134.187c1.127-34.18 25.986-61.1 55.525-60.126 25.637 0.845 46.362 22.429 50.655 50.462-3.414-29.236-24.595-52.083-50.987-52.953-29.539-0.974-54.398 25.945-55.525 60.126a71.506 71.506 0 0 0 0.788 13.189 71.916 71.916 0 0 1-0.456-10.698z" fill="#DCA92D" p-id="10135"></path><path d="M572.222 205.322c-34.615-1.141-61.714-34.307-60.408-73.933 1.307-39.626 30.532-70.934 65.147-69.793 34.615 1.141 61.713 34.307 60.407 73.933s-30.531 70.934-65.146 69.793z m4.412-133.814c-29.151-0.961-53.781 26.048-54.908 60.208-1.126 34.16 21.672 62.733 50.823 63.694 29.148 0.961 53.78-26.048 54.907-60.208 1.126-34.16-21.673-62.733-50.822-63.694z" fill="#EBCB32" p-id="10136"></path><path d="M625.602 149.216c-6.354 27.226-28.032 47.019-53.053 46.194-22.682-0.748-41.513-18.216-48.225-42.023-4.648-3.368-8.762-7.242-12.186-11.568 3.275 34.855 28.557 62.464 60.084 63.503 34.051 1.123 62.865-29.162 65.039-67.869-3.32 4.263-7.236 8.214-11.659 11.763z" fill="#DCA92D" p-id="10137"></path><path d="M610.431 137.431c-0.4 12.146-16.812 21.462-36.657 20.808-19.844-0.654-36.526-11.372-36.125-23.518 0.401-12.146 17.731-21.122 37.576-20.467 19.844 0.654 35.607 11.031 35.206 23.177z" fill="#F4BD2C" p-id="10138"></path><path d="M613.083 132.247c-1.069 13.609-15.396 22.439-35.24 21.785-19.844-0.654-35.607-11.031-35.206-23.177s16.812-21.462 36.657-20.808c19.844 0.654 34.741 10.085 33.789 22.2z" fill="#EBCB32" p-id="10139"></path><path d="M577.836 110.309c18.974 1.006 26.306 4.692 31.485 10.651-3.939-5.918-13.464-12.848-34.181-13.531-22.302-0.735-39.356 8.625-37.491 27.292 1.067 0.552 3.686 1.052 5.235 1.103-2.474-18.997 20.287-26.292 34.952-25.515z" fill="#FFFEA1" p-id="10140"></path><path d="M562.122374 129.042703a5.889 10.227 1.891 1 0 11.771586 0.388652 5.889 10.227 1.891 1 0-11.771586-0.388652Z" fill="#DCA92D" p-id="10141"></path><path d="M582.566326 129.717593a5.889 10.227 1.891 1 0 11.771586 0.388653 5.889 10.227 1.891 1 0-11.771586-0.388653Z" fill="#DCA92D" p-id="10142"></path><path d="M549.188 151.537c-7.145 0.385-18.429 4.044-27.293-6.652 5.877 29.203 26.756 49.675 50.656 50.463 25.271 0.833 45.846-17.854 52.336-44.933-5.835 6.865-15.737 3.926-27.398 3.335-17.312 7.801-39.891 2.922-48.301-2.213z" fill="#F4CF47" p-id="10143"></path><path d="M366.434 608.469c-39.741-11.292-56.592-91.947-0.104-127.399-2.411 0.267-6.368 2.129-10.23 4.7-15.598 10.382-28.814 23.586-33.126 54.04-3.753 26.503 2.652 42.243 10.531 54.08 8.849 13.294 27.195 16.781 32.929 14.579z" fill="#DDEEFF" p-id="10144"></path><path d="M257.835 329.797c-11.121 14.746-20.293 31.195-17.129 45.572-3.038-1.22-10.734-5-11.643-5.524 0.353-4.327 9.221-28.519 28.772-40.048z" fill="#DDEEFF" p-id="10145"></path></svg>